# Blender v2.93.2 OBJ File: 'beach.blend'
# www.blender.org
mtllib beach.mtl
o Plane
v -15.613688 -5.548720 0.738882
v 130.090637 -5.412707 0.738882
v 71.090141 -0.205223 0.738883
v 58.397156 2.040637 0.738883
v 51.002037 5.989329 0.738883
v 40.201141 6.343152 0.738883
v 37.422096 7.938522 0.738883
v 32.561756 9.723096 0.738883
v 27.701410 11.507669 0.738883
v 22.841063 13.292244 0.738884
v 18.739258 14.101971 0.738884
v 14.637452 14.911696 0.738884
v 10.535646 15.721423 0.738884
v 6.433841 16.531149 0.738884
v -0.779753 22.117922 0.738885
v -7.919594 23.033398 0.738885
v -15.340163 23.616344 0.738883
vt 0.003225 0.766967
vt 0.054635 0.751661
vt 0.104021 0.727953
vt 0.153838 0.585741
vt 0.182130 0.565015
vt 0.210397 0.544306
vt 0.238638 0.523617
vt 0.266854 0.502946
vt 0.300255 0.457588
vt 0.333620 0.412279
vt 0.366950 0.367017
vt 0.385991 0.326623
vt 0.459886 0.317499
vt 0.510380 0.217746
vt 0.596858 0.161087
vt 0.995707 0.030749
vt 0.001328 0.025115
vn 0.0000 0.0000 -1.0000
usemtl Material.001
s off
f 17/1/1 16/2/1 15/3/1 14/4/1 13/5/1 12/6/1 11/7/1 10/8/1 9/9/1 8/10/1 7/11/1 6/12/1 5/13/1 4/14/1 3/15/1 2/16/1 1/17/1
