# Blender v2.93.2 OBJ File: 'testflat1.blend'
# www.blender.org
mtllib testFlat.mtl
o Plane
v 1.004066 3.536585 -0.000000
v 1.147504 3.337641 -0.000000
v 1.093623 2.018831 -0.000000
v 1.093623 -4.298169 0.000000
v 0.911114 -4.676573 0.000000
v -0.911114 -4.676573 0.000000
v -1.093623 -4.298169 0.000000
v -1.093623 2.018831 -0.000000
v -1.147504 3.337641 -0.000000
v -1.004066 3.536585 -0.000000
vt 0.968211 0.182853
vt 0.991975 0.024386
vt 0.930880 0.000463
vt 0.073919 0.000234
vt 0.034814 0.182603
vt 0.964520 0.941927
vt 0.031122 0.941678
vt 0.108786 0.987169
vt 0.012591 0.024124
vt 0.886414 0.987377
vn -0.0000 -0.0000 -1.0000
usemtl Material.001
s off
f 8/1/1 9/2/1 10/3/1
f 10/3/1 1/4/1 8/1/1
f 8/1/1 1/4/1 3/5/1
f 7/6/1 8/1/1 4/7/1
f 5/8/1 7/6/1 4/7/1
f 4/7/1 8/1/1 3/5/1
f 3/5/1 1/4/1 2/9/1
f 5/8/1 6/10/1 7/6/1
