# Blender v2.93.2 OBJ File: 'Truck.blend'
# www.blender.org
mtllib interceptor.mtl
o Plane_Plane.001
v 0.235041 0.402064 -0.000000
v 0.842982 0.342496 -0.000000
v 1.297074 0.073615 -0.000000
v 1.422109 -0.368631 -0.000000
v -1.411239 -0.366697 -0.000000
v -1.412785 0.059025 -0.000000
v -0.879802 0.206527 -0.000000
v -0.399149 0.317328 -0.000000
vt 0.982259 0.577778
vt 0.798640 0.755342
vt 0.633041 0.888849
vt 0.414516 0.991355
vt 0.204974 0.920899
vt 0.048361 0.599385
vt 0.005077 0.069626
vt 0.981539 0.067630
vn 0.0000 -0.0000 -1.0000
usemtl Material
s off
f 6/1/1 7/2/1 8/3/1 1/4/1 2/5/1 3/6/1 4/7/1 5/8/1
