# Blender v2.93.2 OBJ File: 'house.blend'
# www.blender.org
mtllib house.mtl
o Plane_Plane.001
v 0.509734 0.470991 0.000000
v 0.740493 0.303749 0.000000
v 0.763540 -0.031513 0.000000
v 0.763044 -0.649585 -0.000000
v -0.681084 -0.645612 -0.000000
v -0.666715 -0.000894 0.000000
v -0.654166 0.306330 0.000000
v -0.340641 0.474895 -0.000000
vt 0.982638 0.555182
vt 0.974703 0.764372
vt 0.761582 0.879757
vt 0.182619 0.878785
vt 0.025181 0.765380
vt 0.008825 0.537171
vt 0.007938 0.116371
vt 0.991143 0.116213
vn 0.0000 0.0000 -1.0000
usemtl Material
s off
f 6/1/1 7/2/1 8/3/1 1/4/1 2/5/1 3/6/1 4/7/1 5/8/1
