# Blender v2.93.2 OBJ File: 'bulbMesh.blend'
# www.blender.org
mtllib bulbMesh.mtl
o Circle
v 0.000000 2.000000 0.000000
v -0.390181 1.961571 0.000000
v -0.765367 1.847759 0.000000
v -1.111140 1.662939 0.000000
v -1.414214 1.414214 0.000000
v -1.662939 1.111140 0.000000
v -1.847759 0.765367 0.000000
v -1.961571 0.390181 0.000000
v -2.000000 -0.000000 -0.000000
v -1.961571 -0.390181 -0.000000
v -1.847759 -0.765367 -0.000000
v -1.662939 -1.111140 -0.000000
v -1.414214 -1.414214 -0.000000
v -1.111140 -1.662939 -0.000000
v -0.765367 -1.847759 -0.000000
v -0.390181 -1.961571 -0.000000
v 0.000000 -2.000000 -0.000000
v 0.390180 -1.961571 -0.000000
v 0.765367 -1.847759 -0.000000
v 1.111141 -1.662939 -0.000000
v 1.414213 -1.414214 -0.000000
v 1.662939 -1.111141 -0.000000
v 1.847759 -0.765367 -0.000000
v 1.961571 -0.390181 -0.000000
v 2.000000 0.000000 0.000000
v 1.961571 0.390181 0.000000
v 1.847759 0.765367 0.000000
v 1.662939 1.111140 0.000000
v 1.414214 1.414213 0.000000
v 1.111141 1.662939 0.000000
v 0.765367 1.847759 0.000000
v 0.390180 1.961571 0.000000
v 0.697949 1.729216 0.000000
v 0.259937 1.724208 0.000000
v -0.186064 1.648110 0.000000
v -0.622913 1.503844 0.000000
v -1.033823 1.296957 0.000000
v -1.403003 1.035396 0.000000
v -1.716265 0.729216 0.000000
v 0.986190 1.412796 0.000000
v 0.522600 1.351458 0.000000
v 0.041257 1.232556 0.000000
v -0.439340 1.060660 0.000000
v -0.900722 0.842376 0.000000
v -1.325159 0.586091 0.000000
v -1.696340 0.301656 0.000000
v 1.241558 1.029953 0.000000
v 0.773939 0.905627 0.000000
v 0.278051 0.742940 0.000000
v -0.227049 0.548145 0.000000
v -0.721950 0.328727 0.000000
v -1.187632 0.093118 0.000000
v -1.606201 -0.149628 -0.000000
v 1.451775 0.601345 0.000000
v 1.000000 0.414214 0.000000
v 0.509795 0.211165 0.000000
v -0.000000 0.000000 0.000000
v -0.509796 -0.211164 -0.000000
v -1.000000 -0.414213 -0.000000
v -1.451775 -0.601345 -0.000000
v 1.606201 0.149628 0.000000
v 1.187632 -0.093118 -0.000000
v 0.721950 -0.328726 -0.000000
v 0.227049 -0.548145 -0.000000
v -0.278051 -0.742940 -0.000000
v -0.773938 -0.905627 -0.000000
v -1.241558 -1.029953 -0.000000
v 1.696340 -0.301656 -0.000000
v 1.325159 -0.586091 -0.000000
v 0.900722 -0.842375 -0.000000
v 0.439340 -1.060660 -0.000000
v -0.041257 -1.232556 -0.000000
v -0.522600 -1.351458 -0.000000
v -0.986191 -1.412796 -0.000000
v 1.716264 -0.729216 -0.000000
v 1.403002 -1.035396 -0.000000
v 1.033823 -1.296956 -0.000000
v 0.622913 -1.503844 -0.000000
v 0.186064 -1.648110 -0.000000
v -0.259937 -1.724208 -0.000000
v -0.697949 -1.729216 -0.000000
vt 0.645816 0.980689
vt 0.717022 0.915035
vt 0.818668 0.888298
vt 0.736792 0.943006
vt 0.781279 0.828850
vt 0.888298 0.818668
vt 0.835683 0.726872
vt 0.943006 0.736791
vt 0.877675 0.614567
vt 0.980689 0.645816
vt 0.905153 0.497858
vt 0.999900 0.549236
vt 0.916574 0.382841
vt 0.999900 0.450764
vt 0.911029 0.275482
vt 0.980689 0.354185
vt 0.888298 0.181332
vt 0.943006 0.263209
vt 0.549236 0.999900
vt 0.607418 0.924567
vt 0.663894 0.824932
vt 0.715741 0.707309
vt 0.760147 0.578915
vt 0.794556 0.447488
vt 0.816795 0.320884
vt 0.825191 0.206664
vt 0.818668 0.111702
vt 0.450764 0.999900
vt 0.494067 0.916526
vt 0.540655 0.807062
vt 0.587788 0.678853
vt 0.632622 0.540231
vt 0.672359 0.400062
vt 0.704398 0.267274
vt 0.726476 0.150375
vt 0.736791 0.056994
vt 0.354185 0.980689
vt 0.381325 0.891221
vt 0.416298 0.775928
vt 0.456743 0.642598
vt 0.500000 0.500000
vt 0.543257 0.357402
vt 0.583702 0.224072
vt 0.618675 0.108779
vt 0.645815 0.019311
vt 0.263209 0.943006
vt 0.273525 0.849625
vt 0.295602 0.732726
vt 0.327641 0.599938
vt 0.367378 0.459770
vt 0.412212 0.321147
vt 0.459345 0.192938
vt 0.505934 0.083474
vt 0.549236 0.000100
vt 0.181333 0.888298
vt 0.174809 0.793337
vt 0.183205 0.679116
vt 0.205444 0.552512
vt 0.239853 0.421085
vt 0.284259 0.292691
vt 0.336106 0.175068
vt 0.392582 0.075433
vt 0.450764 0.000100
vt 0.111703 0.818668
vt 0.088972 0.724519
vt 0.083426 0.617160
vt 0.094847 0.502142
vt 0.122325 0.385434
vt 0.164317 0.273128
vt 0.218721 0.171150
vt 0.282978 0.084965
vt 0.354184 0.019311
vt 0.056994 0.736792
vt 0.019311 0.645816
vt 0.000100 0.549236
vt 0.000100 0.450764
vt 0.019311 0.354185
vt 0.056994 0.263209
vt 0.111702 0.181333
vt 0.181332 0.111702
vt 0.263208 0.056994
vn -0.0000 -0.0000 1.0000
usemtl Material.002
s off
f 32/1/1 33/2/1 30/3/1 31/4/1
f 33/2/1 40/5/1 29/6/1 30/3/1
f 40/5/1 47/7/1 28/8/1 29/6/1
f 47/7/1 54/9/1 27/10/1 28/8/1
f 54/9/1 61/11/1 26/12/1 27/10/1
f 61/11/1 68/13/1 25/14/1 26/12/1
f 68/13/1 75/15/1 24/16/1 25/14/1
f 75/15/1 22/17/1 23/18/1 24/16/1
f 1/19/1 34/20/1 33/2/1 32/1/1
f 34/20/1 41/21/1 40/5/1 33/2/1
f 41/21/1 48/22/1 47/7/1 40/5/1
f 48/22/1 55/23/1 54/9/1 47/7/1
f 55/23/1 62/24/1 61/11/1 54/9/1
f 62/24/1 69/25/1 68/13/1 61/11/1
f 69/25/1 76/26/1 75/15/1 68/13/1
f 76/26/1 21/27/1 22/17/1 75/15/1
f 2/28/1 35/29/1 34/20/1 1/19/1
f 35/29/1 42/30/1 41/21/1 34/20/1
f 42/30/1 49/31/1 48/22/1 41/21/1
f 49/31/1 56/32/1 55/23/1 48/22/1
f 56/32/1 63/33/1 62/24/1 55/23/1
f 63/33/1 70/34/1 69/25/1 62/24/1
f 70/34/1 77/35/1 76/26/1 69/25/1
f 77/35/1 20/36/1 21/27/1 76/26/1
f 3/37/1 36/38/1 35/29/1 2/28/1
f 36/38/1 43/39/1 42/30/1 35/29/1
f 43/39/1 50/40/1 49/31/1 42/30/1
f 50/40/1 57/41/1 56/32/1 49/31/1
f 57/41/1 64/42/1 63/33/1 56/32/1
f 64/42/1 71/43/1 70/34/1 63/33/1
f 71/43/1 78/44/1 77/35/1 70/34/1
f 78/44/1 19/45/1 20/36/1 77/35/1
f 4/46/1 37/47/1 36/38/1 3/37/1
f 37/47/1 44/48/1 43/39/1 36/38/1
f 44/48/1 51/49/1 50/40/1 43/39/1
f 51/49/1 58/50/1 57/41/1 50/40/1
f 58/50/1 65/51/1 64/42/1 57/41/1
f 65/51/1 72/52/1 71/43/1 64/42/1
f 72/52/1 79/53/1 78/44/1 71/43/1
f 79/53/1 18/54/1 19/45/1 78/44/1
f 5/55/1 38/56/1 37/47/1 4/46/1
f 38/56/1 45/57/1 44/48/1 37/47/1
f 45/57/1 52/58/1 51/49/1 44/48/1
f 52/58/1 59/59/1 58/50/1 51/49/1
f 59/59/1 66/60/1 65/51/1 58/50/1
f 66/60/1 73/61/1 72/52/1 65/51/1
f 73/61/1 80/62/1 79/53/1 72/52/1
f 80/62/1 17/63/1 18/54/1 79/53/1
f 6/64/1 39/65/1 38/56/1 5/55/1
f 39/65/1 46/66/1 45/57/1 38/56/1
f 46/66/1 53/67/1 52/58/1 45/57/1
f 53/67/1 60/68/1 59/59/1 52/58/1
f 60/68/1 67/69/1 66/60/1 59/59/1
f 67/69/1 74/70/1 73/61/1 66/60/1
f 74/70/1 81/71/1 80/62/1 73/61/1
f 81/71/1 16/72/1 17/63/1 80/62/1
f 7/73/1 8/74/1 39/65/1 6/64/1
f 8/74/1 9/75/1 46/66/1 39/65/1
f 9/75/1 10/76/1 53/67/1 46/66/1
f 10/76/1 11/77/1 60/68/1 53/67/1
f 11/77/1 12/78/1 67/69/1 60/68/1
f 12/78/1 13/79/1 74/70/1 67/69/1
f 13/79/1 14/80/1 81/71/1 74/70/1
f 14/80/1 15/81/1 16/72/1 81/71/1
