# Blender v2.93.2 OBJ File: 'Joystick.blend'
# www.blender.org
mtllib joystick.mtl
o Icosphere
v 0.000000 0.000000 2.981750
v 0.770732 -0.559963 3.570531
v -0.294388 -0.906048 3.570530
v -0.952676 0.000000 3.570535
v -0.294388 0.906048 3.570530
v 0.770732 0.559963 3.570531
v 0.294388 -0.906048 4.523221
v -0.770732 -0.559963 4.523220
v -0.770732 0.559963 4.523221
v 0.294388 0.906048 4.523221
v 0.952676 -0.000000 4.523216
v 0.000000 -0.000000 5.112001
v -0.173036 -0.532558 3.140822
v 0.453022 -0.329136 3.140822
v 0.279988 -0.861699 3.486899
v 0.906047 0.000000 3.486901
v 0.453022 0.329136 3.140822
v -0.559968 0.000000 3.140825
v -0.733008 -0.532559 3.486901
v -0.173036 0.532558 3.140822
v -0.733008 0.532559 3.486901
v 0.279988 0.861699 3.486899
v 1.012996 -0.329137 4.046875
v 1.012996 0.329137 4.046875
v 0.000000 -1.065125 4.046875
v 0.626065 -0.861704 4.046875
v -1.012996 -0.329137 4.046875
v -0.626065 -0.861704 4.046875
v -0.626065 0.861704 4.046875
v -1.012996 0.329137 4.046875
v 0.626065 0.861704 4.046875
v 0.000000 1.065125 4.046875
v 0.733008 -0.532559 4.606851
v -0.279988 -0.861699 4.606852
v -0.906047 -0.000000 4.606850
v -0.279988 0.861699 4.606852
v 0.733008 0.532559 4.606851
v 0.173036 -0.532558 4.952929
v 0.559968 -0.000000 4.952926
v -0.453022 -0.329136 4.952929
v -0.453022 0.329136 4.952929
v 0.173036 0.532558 4.952929
v 0.000000 0.406862 -0.317042
v 0.000000 0.406862 3.356226
v 0.079375 0.399044 -0.317042
v 0.079375 0.399044 3.356226
v 0.155699 0.375891 -0.317042
v 0.155699 0.375891 3.356226
v 0.226040 0.338293 -0.317042
v 0.226040 0.338293 3.356226
v 0.287695 0.287695 -0.317042
v 0.287695 0.287695 3.356226
v 0.338293 0.226040 -0.317042
v 0.338293 0.226040 3.356226
v 0.375891 0.155699 -0.317042
v 0.375891 0.155699 3.356226
v 0.399044 0.079375 -0.317042
v 0.399044 0.079375 3.356226
v 0.406862 0.000000 -0.317042
v 0.406862 0.000000 3.356226
v 0.399044 -0.079375 -0.317042
v 0.399044 -0.079375 3.356226
v 0.375891 -0.155699 -0.317042
v 0.375891 -0.155699 3.356226
v 0.338293 -0.226040 -0.317042
v 0.338293 -0.226040 3.356226
v 0.287695 -0.287694 -0.317042
v 0.287695 -0.287695 3.356226
v 0.226040 -0.338293 -0.317042
v 0.226040 -0.338293 3.356226
v 0.155699 -0.375891 -0.317042
v 0.155699 -0.375891 3.356226
v 0.079375 -0.399044 -0.317042
v 0.079375 -0.399044 3.356226
v -0.000000 -0.406862 -0.317042
v -0.000000 -0.406862 3.356226
v -0.079375 -0.399044 -0.317042
v -0.079375 -0.399044 3.356226
v -0.155699 -0.375891 -0.317042
v -0.155699 -0.375891 3.356226
v -0.226040 -0.338293 -0.317042
v -0.226040 -0.338293 3.356226
v -0.287695 -0.287694 -0.317042
v -0.287695 -0.287695 3.356226
v -0.338293 -0.226040 -0.317042
v -0.338293 -0.226040 3.356226
v -0.375891 -0.155699 -0.317042
v -0.375891 -0.155699 3.356226
v -0.399044 -0.079375 -0.317042
v -0.399044 -0.079375 3.356226
v -0.406862 0.000000 -0.317042
v -0.406862 0.000000 3.356226
v -0.399044 0.079375 -0.317042
v -0.399044 0.079375 3.356226
v -0.375891 0.155699 -0.317042
v -0.375891 0.155699 3.356226
v -0.338293 0.226040 -0.317042
v -0.338293 0.226040 3.356226
v -0.287695 0.287695 -0.317042
v -0.287695 0.287695 3.356226
v -0.226040 0.338293 -0.317042
v -0.226040 0.338293 3.356226
v -0.155699 0.375891 -0.317042
v -0.155699 0.375891 3.356226
v -0.079375 0.399044 -0.317042
v -0.079375 0.399044 3.356226
vt 0.181819 0.000000
vt 0.227273 0.078731
vt 0.136365 0.078731
vt 0.272728 0.157461
vt 0.318182 0.078731
vt 0.363637 0.157461
vt 0.909091 0.000000
vt 0.954545 0.078731
vt 0.863636 0.078731
vt 0.727273 0.000000
vt 0.772727 0.078731
vt 0.681818 0.078731
vt 0.545455 0.000000
vt 0.590909 0.078731
vt 0.500000 0.078731
vt 0.318182 0.236191
vt 0.090910 0.157461
vt 0.181819 0.157461
vt 0.136365 0.236191
vt 0.818182 0.157461
vt 0.909091 0.157461
vt 0.863636 0.236191
vt 0.636364 0.157461
vt 0.727273 0.157461
vt 0.681818 0.236191
vt 0.454546 0.157461
vt 0.545455 0.157461
vt 0.500000 0.236191
vt 0.227273 0.236191
vt 0.045455 0.236191
vt 0.772727 0.236191
vt 0.590909 0.236191
vt 0.409092 0.236191
vt 0.181819 0.314921
vt 0.272728 0.314921
vt 0.227273 0.393651
vt 0.000000 0.314921
vt 0.090910 0.314921
vt 0.045455 0.393651
vt 0.727273 0.314921
vt 0.818182 0.314921
vt 0.772727 0.393651
vt 0.545455 0.314921
vt 0.636364 0.314921
vt 0.590909 0.393651
vt 0.363637 0.314921
vt 0.454546 0.314921
vt 0.409092 0.393651
vt 0.500000 0.393651
vt 0.454546 0.472382
vt 0.681818 0.393651
vt 0.636364 0.472382
vt 0.863636 0.393651
vt 0.818182 0.472382
vt 0.909091 0.314921
vt 0.136365 0.393651
vt 0.090910 0.472382
vt 0.318182 0.393651
vt 0.272728 0.472382
vt 0.954545 0.236191
vt 1.000000 0.157461
vt 0.409092 0.078731
vt 0.363637 0.000000
vt 0.731283 0.523044
vt 0.731283 0.981993
vt 0.708667 0.981993
vt 0.708667 0.523044
vt 0.686051 0.981993
vt 0.686051 0.523044
vt 0.663434 0.981993
vt 0.663434 0.523044
vt 0.640818 0.981993
vt 0.640818 0.523044
vt 0.618201 0.981993
vt 0.618201 0.523044
vt 0.595585 0.981993
vt 0.595585 0.523044
vt 0.572968 0.981993
vt 0.572968 0.523044
vt 0.550352 0.981993
vt 0.550352 0.523044
vt 0.527736 0.981993
vt 0.527736 0.523044
vt 0.505119 0.981993
vt 0.505119 0.523044
vt 0.482503 0.981993
vt 0.482503 0.523044
vt 0.459886 0.981993
vt 0.459886 0.523044
vt 0.437270 0.981993
vt 0.437270 0.523044
vt 0.414653 0.981993
vt 0.414653 0.523044
vt 0.392037 0.981993
vt 0.392037 0.523044
vt 0.369420 0.981993
vt 0.369420 0.523044
vt 0.346804 0.981993
vt 0.346804 0.523044
vt 0.324188 0.981993
vt 0.324188 0.523044
vt 0.301571 0.981993
vt 0.301571 0.523044
vt 0.278955 0.981993
vt 0.278955 0.523044
vt 0.256338 0.981993
vt 0.256338 0.523044
vt 0.233722 0.981993
vt 0.233722 0.523044
vt 0.211105 0.981993
vt 0.211105 0.523044
vt 0.188489 0.981993
vt 0.188489 0.523044
vt 0.165872 0.981993
vt 0.165872 0.523044
vt 0.143256 0.981993
vt 0.143256 0.523044
vt 0.120640 0.981993
vt 0.120640 0.523044
vt 0.098023 0.981993
vt 0.098023 0.523044
vt 0.075407 0.981993
vt 0.075407 0.523044
vt 0.052790 0.981993
vt 0.052790 0.523044
vt 0.891018 0.751579
vt 0.866472 0.753996
vt 0.841926 0.751579
vt 0.818323 0.744419
vt 0.796571 0.732792
vt 0.777505 0.717145
vt 0.761858 0.698079
vt 0.750231 0.676327
vt 0.743071 0.652724
vt 0.740654 0.628178
vt 0.743071 0.603632
vt 0.750231 0.580029
vt 0.761858 0.558277
vt 0.777505 0.539211
vt 0.796571 0.523564
vt 0.818323 0.511937
vt 0.841926 0.504777
vt 0.866472 0.502360
vt 0.891018 0.504777
vt 0.914620 0.511937
vt 0.936373 0.523564
vt 0.955439 0.539211
vt 0.971086 0.558277
vt 0.982713 0.580029
vt 0.989873 0.603632
vt 0.992290 0.628178
vt 0.989873 0.652724
vt 0.982713 0.676327
vt 0.971086 0.698079
vt 0.955439 0.717145
vt 0.936373 0.732792
vt 0.914620 0.744419
vt 0.030174 0.981993
vt 0.030174 0.523044
vt 0.007557 0.981993
vt 0.007557 0.523044
vt 0.866757 0.996442
vt 0.891538 0.994001
vt 0.915366 0.986773
vt 0.937327 0.975035
vt 0.956575 0.959238
vt 0.972372 0.939990
vt 0.984110 0.918029
vt 0.991338 0.894201
vt 0.993779 0.869420
vt 0.991338 0.844639
vt 0.984110 0.820811
vt 0.972372 0.798850
vt 0.956575 0.779602
vt 0.937327 0.763805
vt 0.915366 0.752067
vt 0.891538 0.744839
vt 0.866757 0.742398
vt 0.841976 0.744839
vt 0.818148 0.752067
vt 0.796188 0.763805
vt 0.776939 0.779602
vt 0.761142 0.798850
vt 0.749404 0.820811
vt 0.742176 0.844639
vt 0.739735 0.869420
vt 0.742176 0.894201
vt 0.749404 0.918029
vt 0.761142 0.939990
vt 0.776939 0.959238
vt 0.796188 0.975035
vt 0.818148 0.986773
vt 0.841976 0.994001
vn 0.1024 -0.3151 -0.9435
vn 0.7002 -0.2680 -0.6617
vn -0.2680 -0.1947 -0.9435
vn -0.2680 0.1947 -0.9435
vn 0.1024 0.3151 -0.9435
vn 0.9050 -0.2680 -0.3304
vn 0.0247 -0.9435 -0.3304
vn -0.8897 -0.3151 -0.3304
vn -0.5746 0.7488 -0.3304
vn 0.5346 0.7779 -0.3304
vn 0.8026 -0.5831 -0.1256
vn -0.3066 -0.9435 -0.1256
vn -0.9921 0.0000 -0.1256
vn -0.3066 0.9435 -0.1256
vn 0.8026 0.5831 -0.1256
vn 0.4089 -0.6284 0.6617
vn -0.4713 -0.5831 0.6617
vn -0.7002 0.2680 0.6617
vn 0.0385 0.7488 0.6617
vn 0.7240 0.1947 0.6617
vn 0.2680 0.1947 0.9435
vn 0.4911 0.3568 0.7947
vn 0.4089 0.6284 0.6617
vn -0.1024 0.3151 0.9435
vn -0.1876 0.5773 0.7947
vn -0.4713 0.5831 0.6617
vn -0.3313 0.0000 0.9435
vn -0.6071 0.0000 0.7947
vn -0.7002 -0.2680 0.6617
vn -0.1024 -0.3151 0.9435
vn -0.1876 -0.5773 0.7947
vn 0.0385 -0.7488 0.6617
vn 0.2680 -0.1947 0.9435
vn 0.4911 -0.3568 0.7947
vn 0.7240 -0.1947 0.6617
vn 0.8897 0.3151 0.3304
vn 0.7947 0.5773 0.1876
vn 0.5746 0.7488 0.3304
vn -0.0247 0.9435 0.3304
vn -0.3035 0.9342 0.1876
vn -0.5346 0.7779 0.3304
vn -0.9050 0.2680 0.3304
vn -0.9822 0.0000 0.1876
vn -0.9050 -0.2680 0.3304
vn -0.5346 -0.7779 0.3304
vn -0.3035 -0.9342 0.1876
vn -0.0247 -0.9435 0.3304
vn 0.5746 -0.7488 0.3304
vn 0.7947 -0.5773 0.1876
vn 0.8897 -0.3151 0.3304
vn 0.3066 0.9435 0.1256
vn 0.3035 0.9342 -0.1876
vn 0.0247 0.9435 -0.3304
vn -0.8026 0.5831 0.1256
vn -0.7947 0.5773 -0.1876
vn -0.8897 0.3151 -0.3304
vn -0.8026 -0.5831 0.1256
vn -0.7947 -0.5773 -0.1876
vn -0.5746 -0.7488 -0.3304
vn 0.3066 -0.9435 0.1256
vn 0.3035 -0.9342 -0.1876
vn 0.5346 -0.7779 -0.3304
vn 0.9921 0.0000 0.1256
vn 0.9822 0.0000 -0.1876
vn 0.9050 0.2680 -0.3304
vn 0.4713 0.5831 -0.6617
vn 0.1876 0.5773 -0.7947
vn -0.0385 0.7488 -0.6617
vn -0.4089 0.6284 -0.6617
vn -0.4911 0.3568 -0.7947
vn -0.7240 0.1947 -0.6617
vn -0.7240 -0.1947 -0.6617
vn -0.4911 -0.3568 -0.7947
vn -0.4089 -0.6284 -0.6617
vn 0.7002 0.2680 -0.6617
vn 0.6071 0.0000 -0.7947
vn 0.3313 0.0000 -0.9435
vn -0.0385 -0.7488 -0.6617
vn 0.1876 -0.5773 -0.7947
vn 0.4713 -0.5831 -0.6617
vn 0.0980 0.9952 0.0000
vn 0.2903 0.9569 0.0000
vn 0.4714 0.8819 0.0000
vn 0.6344 0.7730 0.0000
vn 0.7730 0.6344 0.0000
vn 0.8819 0.4714 0.0000
vn 0.9569 0.2903 0.0000
vn 0.9952 0.0980 0.0000
vn 0.9952 -0.0980 -0.0000
vn 0.9569 -0.2903 -0.0000
vn 0.8819 -0.4714 -0.0000
vn 0.7730 -0.6344 -0.0000
vn 0.6344 -0.7730 -0.0000
vn 0.4714 -0.8819 -0.0000
vn 0.2903 -0.9569 -0.0000
vn 0.0980 -0.9952 -0.0000
vn -0.0980 -0.9952 -0.0000
vn -0.2903 -0.9569 -0.0000
vn -0.4714 -0.8819 -0.0000
vn -0.6344 -0.7730 -0.0000
vn -0.7730 -0.6344 -0.0000
vn -0.8819 -0.4714 -0.0000
vn -0.9569 -0.2903 -0.0000
vn -0.9952 -0.0980 -0.0000
vn -0.9952 0.0980 0.0000
vn -0.9569 0.2903 0.0000
vn -0.8819 0.4714 0.0000
vn -0.7730 0.6344 0.0000
vn -0.6344 0.7730 0.0000
vn -0.4714 0.8819 0.0000
vn 0.0000 0.0000 1.0000
vn -0.2903 0.9569 0.0000
vn -0.0980 0.9952 0.0000
vn -0.0000 0.0000 -1.0000
usemtl Material.001
s off
f 1/1/1 14/2/1 13/3/1
f 2/4/2 14/5/2 16/6/2
f 1/7/3 13/8/3 18/9/3
f 1/10/4 18/11/4 20/12/4
f 1/13/5 20/14/5 17/15/5
f 2/4/6 16/6/6 23/16/6
f 3/17/7 15/18/7 25/19/7
f 4/20/8 19/21/8 27/22/8
f 5/23/9 21/24/9 29/25/9
f 6/26/10 22/27/10 31/28/10
f 2/4/11 23/16/11 26/29/11
f 3/17/12 25/19/12 28/30/12
f 4/20/13 27/22/13 30/31/13
f 5/23/14 29/25/14 32/32/14
f 6/26/15 31/28/15 24/33/15
f 7/34/16 33/35/16 38/36/16
f 8/37/17 34/38/17 40/39/17
f 9/40/18 35/41/18 41/42/18
f 10/43/19 36/44/19 42/45/19
f 11/46/20 37/47/20 39/48/20
f 39/48/21 42/49/21 12/50/21
f 39/48/22 37/47/22 42/49/22
f 37/47/23 10/43/23 42/49/23
f 42/45/24 41/51/24 12/52/24
f 42/45/25 36/44/25 41/51/25
f 36/44/26 9/40/26 41/51/26
f 41/42/27 40/53/27 12/54/27
f 41/42/28 35/41/28 40/53/28
f 35/41/29 8/55/29 40/53/29
f 40/39/30 38/56/30 12/57/30
f 40/39/31 34/38/31 38/56/31
f 34/38/32 7/34/32 38/56/32
f 38/36/33 39/58/33 12/59/33
f 38/36/34 33/35/34 39/58/34
f 33/35/35 11/46/35 39/58/35
f 24/33/36 37/47/36 11/46/36
f 24/33/37 31/28/37 37/47/37
f 31/28/38 10/43/38 37/47/38
f 32/32/39 36/44/39 10/43/39
f 32/32/40 29/25/40 36/44/40
f 29/25/41 9/40/41 36/44/41
f 30/31/42 35/41/42 9/40/42
f 30/31/43 27/22/43 35/41/43
f 27/22/44 8/55/44 35/41/44
f 28/30/45 34/38/45 8/37/45
f 28/30/46 25/19/46 34/38/46
f 25/19/47 7/34/47 34/38/47
f 26/29/48 33/35/48 7/34/48
f 26/29/49 23/16/49 33/35/49
f 23/16/50 11/46/50 33/35/50
f 31/28/51 32/32/51 10/43/51
f 31/28/52 22/27/52 32/32/52
f 22/27/53 5/23/53 32/32/53
f 29/25/54 30/31/54 9/40/54
f 29/25/55 21/24/55 30/31/55
f 21/24/56 4/20/56 30/31/56
f 27/22/57 28/60/57 8/55/57
f 27/22/58 19/21/58 28/60/58
f 19/21/59 3/61/59 28/60/59
f 25/19/60 26/29/60 7/34/60
f 25/19/61 15/18/61 26/29/61
f 15/18/62 2/4/62 26/29/62
f 23/16/63 24/33/63 11/46/63
f 23/16/64 16/6/64 24/33/64
f 16/6/65 6/26/65 24/33/65
f 17/15/66 22/27/66 6/26/66
f 17/15/67 20/14/67 22/27/67
f 20/14/68 5/23/68 22/27/68
f 20/12/69 21/24/69 5/23/69
f 20/12/70 18/11/70 21/24/70
f 18/11/71 4/20/71 21/24/71
f 18/9/72 19/21/72 4/20/72
f 18/9/73 13/8/73 19/21/73
f 13/8/74 3/61/74 19/21/74
f 16/6/75 17/62/75 6/26/75
f 16/6/76 14/5/76 17/62/76
f 14/5/77 1/63/77 17/62/77
f 13/3/78 15/18/78 3/17/78
f 13/3/79 14/2/79 15/18/79
f 14/2/80 2/4/80 15/18/80
usemtl Material.002
f 43/64/81 44/65/81 46/66/81 45/67/81
f 45/67/82 46/66/82 48/68/82 47/69/82
f 47/69/83 48/68/83 50/70/83 49/71/83
f 49/71/84 50/70/84 52/72/84 51/73/84
f 51/73/85 52/72/85 54/74/85 53/75/85
f 53/75/86 54/74/86 56/76/86 55/77/86
f 55/77/87 56/76/87 58/78/87 57/79/87
f 57/79/88 58/78/88 60/80/88 59/81/88
f 59/81/89 60/80/89 62/82/89 61/83/89
f 61/83/90 62/82/90 64/84/90 63/85/90
f 63/85/91 64/84/91 66/86/91 65/87/91
f 65/87/92 66/86/92 68/88/92 67/89/92
f 67/89/93 68/88/93 70/90/93 69/91/93
f 69/91/94 70/90/94 72/92/94 71/93/94
f 71/93/95 72/92/95 74/94/95 73/95/95
f 73/95/96 74/94/96 76/96/96 75/97/96
f 75/97/97 76/96/97 78/98/97 77/99/97
f 77/99/98 78/98/98 80/100/98 79/101/98
f 79/101/99 80/100/99 82/102/99 81/103/99
f 81/103/100 82/102/100 84/104/100 83/105/100
f 83/105/101 84/104/101 86/106/101 85/107/101
f 85/107/102 86/106/102 88/108/102 87/109/102
f 87/109/103 88/108/103 90/110/103 89/111/103
f 89/111/104 90/110/104 92/112/104 91/113/104
f 91/113/105 92/112/105 94/114/105 93/115/105
f 93/115/106 94/114/106 96/116/106 95/117/106
f 95/117/107 96/116/107 98/118/107 97/119/107
f 97/119/108 98/118/108 100/120/108 99/121/108
f 99/121/109 100/120/109 102/122/109 101/123/109
f 101/123/110 102/122/110 104/124/110 103/125/110
f 46/126/111 44/127/111 106/128/111 104/129/111 102/130/111 100/131/111 98/132/111 96/133/111 94/134/111 92/135/111 90/136/111 88/137/111 86/138/111 84/139/111 82/140/111 80/141/111 78/142/111 76/143/111 74/144/111 72/145/111 70/146/111 68/147/111 66/148/111 64/149/111 62/150/111 60/151/111 58/152/111 56/153/111 54/154/111 52/155/111 50/156/111 48/157/111
f 103/125/112 104/124/112 106/158/112 105/159/112
f 105/159/113 106/158/113 44/160/113 43/161/113
f 43/162/114 45/163/114 47/164/114 49/165/114 51/166/114 53/167/114 55/168/114 57/169/114 59/170/114 61/171/114 63/172/114 65/173/114 67/174/114 69/175/114 71/176/114 73/177/114 75/178/114 77/179/114 79/180/114 81/181/114 83/182/114 85/183/114 87/184/114 89/185/114 91/186/114 93/187/114 95/188/114 97/189/114 99/190/114 101/191/114 103/192/114 105/193/114
