# Blender v2.93.2 OBJ File: 'testflat.blend'
# www.blender.org
mtllib testflat.mtl
o Plane
v 1.107053 3.488055 -0.000000
v 0.911114 -4.676573 -0.000000
v -1.107053 3.488055 0.000000
v -0.911114 -4.676573 -0.000000
v 1.093623 0.260417 -0.000000
v -1.093623 0.260417 0.000000
v 1.093623 -1.497998 -0.000000
v -1.093623 2.018831 0.000000
v 1.093623 2.018831 -0.000000
v -1.093623 -1.497998 0.000000
v 1.093623 -4.298169 -0.000000
v -1.093623 -4.298169 -0.000000
v -1.089613 3.138698 0.000000
v 1.089613 3.138698 -0.000000
v 1.004066 3.536585 -0.000000
v -1.147504 3.337641 0.000000
v -1.004066 3.536585 0.000000
v 1.147503 3.337641 -0.000000
v 1.033975 -4.495217 -0.000000
v -1.033974 -4.495217 -0.000000
vt 0.000077 0.037347
vt 0.005985 0.010588
vt 0.024296 0.000077
vt 0.048515 0.015119
vt 0.048515 0.581359
vt 0.024296 0.596401
vt 0.005985 0.585891
vt 0.000077 0.559131
vt 0.977845 0.029576
vt 0.999923 0.061500
vt 0.999923 0.534979
vt 0.977845 0.566902
vt 0.953857 0.582401
vt 0.612973 0.582401
vt 0.398908 0.582401
vt 0.184844 0.582401
vt 0.184844 0.014077
vt 0.398908 0.014077
vt 0.612973 0.014077
vt 0.953857 0.014077
vn -0.0000 -0.0000 -1.0000
usemtl Material.001
s off
f 15/1/1 1/2/1 18/3/1 14/4/1 13/5/1 16/6/1 3/7/1 17/8/1
f 19/9/1 2/10/1 4/11/1 20/12/1 12/13/1 10/14/1 6/15/1 8/16/1 13/5/1 14/4/1 9/17/1 5/18/1 7/19/1 11/20/1
