# Blender v2.93.2 OBJ File: 'Asteroid.blend'
# www.blender.org
mtllib Asteroid.mtl
o Plane_Plane.001
v 0.410888 0.676286 0.000000
v 0.892563 0.258128 0.000000
v 0.748333 -0.198790 0.000000
v 0.420886 -0.687602 -0.000000
v -0.346529 -0.630405 -0.000000
v -0.788371 -0.130154 0.000000
v -0.686653 0.372522 0.000000
v -0.439487 0.710604 0.000000
vt 0.538877 0.986928
vt 0.238078 0.949051
vt 0.027918 0.818200
vt 0.010786 0.315393
vt 0.236128 0.013072
vt 0.511820 0.078020
vt 0.814363 0.249575
vt 0.814364 0.704482
vn 0.0000 0.0000 -1.0000
usemtl Material
s off
f 6/1/1 7/2/1 8/3/1 1/4/1 2/5/1 3/6/1 4/7/1 5/8/1
